<svg width="632" height="160" viewBox="0 0 632 160" fill="none" xmlns="http://www.w3.org/2000/svg">
<rect width="632" height="160" fill="#FFDD00"/>
<path d="M152.562 53.7777L152.495 53.7382L152.339 53.6907C152.402 53.7435 152.48 53.7741 152.562 53.7777Z" fill="#0D0C22"/>
<path d="M152.589 53.7661C152.58 53.765 152.572 53.763 152.564 53.7602C152.563 53.7657 152.563 53.7712 152.564 53.7767C152.573 53.7755 152.581 53.7718 152.589 53.7661Z" fill="#0D0C22"/>
<path d="M152.563 53.7804H152.576V53.7726L152.563 53.7804Z" fill="#0D0C22"/>
<path d="M153.487 60.7605L153.6 60.696L153.642 60.6722L153.68 60.6314C153.609 60.6624 153.543 60.7061 153.487 60.7605Z" fill="#0D0C22"/>
<path d="M152.755 53.9312L152.644 53.8258L152.569 53.785C152.61 53.8562 152.676 53.9087 152.755 53.9312Z" fill="#0D0C22"/>
<path d="M124.92 121.813C124.832 121.851 124.754 121.911 124.695 121.987L124.765 121.942C124.812 121.899 124.879 121.847 124.92 121.813Z" fill="#0D0C22"/>
<path d="M141.086 118.633C141.086 118.533 141.037 118.551 141.049 118.907C141.049 118.878 141.061 118.849 141.066 118.821C141.072 118.758 141.078 118.696 141.086 118.633Z" fill="#0D0C22"/>
<path d="M139.416 121.813C139.328 121.851 139.25 121.911 139.191 121.987L139.261 121.942C139.308 121.899 139.375 121.847 139.416 121.813Z" fill="#0D0C22"/>
<path d="M113.529 122.57C113.462 122.512 113.379 122.473 113.292 122.459C113.363 122.494 113.434 122.528 113.481 122.554L113.529 122.57Z" fill="#0D0C22"/>
<path d="M110.97 120.117C110.96 120.013 110.928 119.913 110.877 119.822C110.913 119.916 110.944 120.013 110.968 120.112L110.97 120.117Z" fill="#0D0C22"/>
<path d="M128.177 76.2336C124.66 77.7393 120.668 79.4465 115.495 79.4465C113.331 79.4422 111.177 79.1453 109.093 78.5639L112.671 115.298C112.797 116.833 113.497 118.265 114.63 119.308C115.763 120.352 117.248 120.931 118.788 120.93C118.788 120.93 123.861 121.194 125.554 121.194C127.376 121.194 132.839 120.93 132.839 120.93C134.379 120.93 135.863 120.351 136.996 119.308C138.129 118.264 138.829 116.833 138.955 115.298L142.787 74.7055C141.075 74.1206 139.346 73.732 137.398 73.732C134.028 73.7307 131.313 74.8912 128.177 76.2336Z" fill="white"/>
<path d="M98.0244 60.562L98.085 60.6186L98.1245 60.6423C98.0941 60.6121 98.0605 60.5851 98.0244 60.562Z" fill="#0D0C22"/>
<path d="M159.339 57.1718L158.801 54.4542C158.317 52.0158 157.22 49.7118 154.717 48.8305C153.915 48.5486 153.004 48.4274 152.389 47.8439C151.774 47.2603 151.592 46.354 151.45 45.5135C151.187 43.9709 150.939 42.427 150.669 40.8871C150.436 39.5632 150.251 38.0759 149.644 36.8614C148.854 35.2305 147.214 34.2768 145.583 33.6458C144.747 33.3338 143.894 33.0699 143.028 32.8554C138.954 31.7804 134.67 31.3852 130.478 31.16C125.447 30.8824 120.402 30.966 115.383 31.4103C111.647 31.7501 107.712 32.1612 104.162 33.4534C102.865 33.9264 101.528 34.4941 100.541 35.4966C99.3302 36.7283 98.935 38.6332 99.8189 40.1691C100.447 41.2599 101.512 42.0305 102.641 42.5403C104.111 43.1972 105.647 43.697 107.222 44.0315C111.609 45.0011 116.152 45.3818 120.634 45.5438C125.601 45.7443 130.576 45.5818 135.52 45.0577C136.742 44.9234 137.962 44.7622 139.181 44.5743C140.615 44.3543 141.536 42.4784 141.113 41.1716C140.607 39.6093 139.248 39.0033 137.71 39.2391C137.484 39.2747 137.259 39.3076 137.032 39.3406L136.869 39.3643C136.348 39.4301 135.827 39.4916 135.306 39.5487C134.23 39.6646 133.152 39.7595 132.071 39.8332C129.65 40.0018 127.222 40.0796 124.795 40.0835C122.411 40.0835 120.025 40.0163 117.646 39.8596C116.561 39.7884 115.478 39.698 114.398 39.5882C113.906 39.5368 113.416 39.4828 112.926 39.4222L112.46 39.3629L112.359 39.3485L111.875 39.2786C110.887 39.1298 109.899 38.9585 108.922 38.7517C108.823 38.7298 108.735 38.675 108.672 38.5962C108.608 38.5174 108.574 38.4193 108.574 38.3183C108.574 38.2173 108.608 38.1193 108.672 38.0405C108.735 37.9617 108.823 37.9068 108.922 37.8849H108.94C109.787 37.7044 110.641 37.5503 111.497 37.4159C111.782 37.3712 112.069 37.3272 112.356 37.2842H112.364C112.9 37.2486 113.439 37.1525 113.972 37.0892C118.614 36.6064 123.283 36.4418 127.948 36.5966C130.212 36.6624 132.475 36.7955 134.729 37.0247C135.214 37.0748 135.696 37.1275 136.178 37.1867C136.363 37.2091 136.549 37.2355 136.734 37.2579L137.108 37.3119C138.199 37.4743 139.284 37.6715 140.363 37.9034C141.963 38.2511 144.016 38.3644 144.728 40.1165C144.954 40.6724 145.057 41.2902 145.182 41.8738L145.342 42.618C145.346 42.6314 145.349 42.6451 145.351 42.6589C145.728 44.4153 146.105 46.1717 146.482 47.9282C146.51 48.0579 146.511 48.192 146.484 48.322C146.458 48.452 146.405 48.5752 146.329 48.6838C146.253 48.7925 146.155 48.8843 146.042 48.9535C145.929 49.0227 145.802 49.0678 145.671 49.0861H145.66L145.43 49.1177L145.202 49.148C144.48 49.242 143.757 49.3298 143.034 49.4115C141.608 49.5739 140.181 49.7145 138.751 49.833C135.91 50.0693 133.063 50.2243 130.211 50.298C128.757 50.3367 127.304 50.3547 125.852 50.352C120.07 50.3475 114.293 50.0115 108.55 49.3456C107.928 49.2718 107.307 49.1928 106.685 49.1124C107.167 49.1744 106.334 49.065 106.166 49.0413C105.771 48.986 105.375 48.9285 104.98 48.8687C103.654 48.6698 102.335 48.4248 101.011 48.2101C99.4105 47.9466 97.8798 48.0784 96.4321 48.8687C95.2437 49.519 94.2819 50.5163 93.6749 51.7273C93.0505 53.0183 92.8648 54.4239 92.5855 55.811C92.3062 57.1982 91.8715 58.6907 92.0362 60.1147C92.3905 63.188 94.5391 65.6857 97.6295 66.2442C100.537 66.7711 103.46 67.198 106.391 67.5615C117.905 68.9717 129.537 69.1404 141.087 68.0648C142.027 67.9769 142.967 67.8812 143.904 67.7776C144.197 67.7454 144.494 67.7791 144.772 67.8764C145.05 67.9736 145.303 68.1318 145.512 68.3394C145.721 68.5471 145.882 68.7989 145.981 69.0764C146.08 69.3539 146.116 69.6501 146.086 69.9433L145.793 72.786C145.204 78.5304 144.615 84.2744 144.026 90.0179C143.411 96.0495 142.792 102.081 142.17 108.111C141.994 109.81 141.818 111.508 141.643 113.206C141.474 114.877 141.45 116.602 141.133 118.254C140.632 120.851 138.874 122.447 136.307 123.03C133.956 123.565 131.555 123.846 129.144 123.868C126.471 123.882 123.799 123.764 121.127 123.778C118.273 123.794 114.778 123.531 112.576 121.407C110.641 119.542 110.373 116.621 110.11 114.096C109.759 110.753 109.41 107.41 109.065 104.067L107.129 85.4811L105.876 73.4552C105.855 73.2563 105.834 73.06 105.814 72.8598C105.664 71.4253 104.648 70.021 103.048 70.0934C101.678 70.154 100.121 71.3185 100.281 72.8598L101.21 81.7754L103.131 100.218C103.678 105.457 104.224 110.696 104.768 115.936C104.874 116.94 104.972 117.947 105.083 118.95C105.685 124.436 109.874 127.392 115.062 128.224C118.092 128.712 121.195 128.812 124.27 128.862C128.211 128.925 132.192 129.077 136.069 128.363C141.814 127.309 146.124 123.473 146.739 117.522C146.915 115.805 147.091 114.086 147.266 112.368C147.85 106.684 148.433 101 149.016 95.3149L150.92 76.7406L151.794 68.2281C151.837 67.806 152.016 67.4091 152.302 67.0962C152.589 66.7833 152.969 66.5709 153.385 66.4906C155.028 66.1704 156.598 65.6238 157.767 64.3736C159.627 62.3831 159.997 59.788 159.339 57.1718ZM97.5452 59.0082C97.5702 58.9963 97.5241 59.211 97.5044 59.3112C97.5004 59.1597 97.5083 59.0253 97.5452 59.0082ZM97.7046 60.2412C97.7178 60.232 97.7573 60.2847 97.7981 60.3479C97.7362 60.2899 97.6967 60.2465 97.7033 60.2412H97.7046ZM97.8614 60.448C97.9483 60.6048 97.918 60.5442 97.8614 60.448ZM98.1762 60.7036H98.1841C98.1841 60.7128 98.1986 60.722 98.2039 60.7312C98.1951 60.7211 98.1854 60.7118 98.1749 60.7036H98.1762ZM153.309 60.3215C152.719 60.8827 151.829 61.1436 150.951 61.274C141.097 62.7362 131.1 63.4765 121.138 63.1498C114.009 62.9061 106.955 62.1144 99.8966 61.1172C99.205 61.0197 98.4555 60.8933 97.9799 60.3835C97.0841 59.4218 97.5241 57.4853 97.7573 56.3235C97.9707 55.2591 98.3791 53.8403 99.645 53.6888C101.621 53.457 103.916 54.2908 105.871 54.5872C108.224 54.9464 110.587 55.234 112.958 55.4501C123.078 56.3722 133.367 56.2286 143.442 54.8797C145.278 54.6329 147.108 54.3462 148.931 54.0195C150.556 53.7283 152.356 53.1817 153.338 54.8639C154.011 56.0099 154.1 57.5433 153.996 58.8382C153.964 59.4024 153.718 59.9331 153.307 60.3215H153.309Z" fill="#0D0C22"/>
<path fill-rule="evenodd" clip-rule="evenodd" d="M213.076 87.6996C212.501 88.7977 211.71 89.7541 210.703 90.5656C209.696 91.3777 208.522 92.0389 207.179 92.548C205.837 93.0583 204.486 93.4007 203.128 93.5752C201.769 93.7504 200.45 93.7352 199.173 93.5273C197.894 93.3207 196.806 92.8989 195.912 92.2613L196.92 81.7996C197.846 81.4815 199.012 81.1548 200.419 80.8203C201.825 80.4863 203.271 80.2469 204.758 80.1039C206.245 79.9603 207.65 79.9772 208.977 80.1518C210.303 80.3269 211.35 80.7487 212.117 81.4178C212.533 81.7996 212.885 82.2136 213.172 82.6596C213.46 83.1057 213.635 83.5675 213.7 84.0451C213.859 85.3826 213.652 86.6008 213.076 87.6996ZM198.453 65.4144C199.124 65.0005 199.932 64.6338 200.874 64.315C201.817 63.9975 202.784 63.7738 203.775 63.6466C204.765 63.5199 205.732 63.5029 206.676 63.5987C207.618 63.6944 208.45 63.9569 209.169 64.3866C209.888 64.8169 210.423 65.4381 210.775 66.2496C211.126 67.0623 211.222 68.0895 211.062 69.3313C210.935 70.3186 210.542 71.1549 209.888 71.8392C209.233 72.5246 208.433 73.0973 207.491 73.5592C206.548 74.0216 205.549 74.3876 204.495 74.6573C203.439 74.9288 202.424 75.1282 201.45 75.2549C200.475 75.3828 199.628 75.4628 198.909 75.4937C198.19 75.5258 197.718 75.5415 197.494 75.5415L198.453 65.4144ZM218.254 80.9397C217.743 79.8257 217.056 78.8463 216.193 78.0015C215.33 77.1579 214.306 76.5452 213.124 76.1628C213.635 75.7488 214.139 75.0961 214.635 74.204C215.13 73.3131 215.553 72.341 215.905 71.2901C216.256 70.2386 216.497 69.1804 216.624 68.1132C216.751 67.0465 216.703 66.1308 216.481 65.3659C215.936 63.4557 215.082 61.9587 213.915 60.8757C212.748 59.7933 211.39 59.0448 209.84 58.6303C208.289 58.2176 206.58 58.1291 204.71 58.3679C202.84 58.6066 200.93 59.0763 198.981 59.7769C198.981 59.6181 198.997 59.4509 199.029 59.2757C199.06 59.1012 199.076 58.9175 199.076 58.726C199.076 58.2485 198.837 57.8351 198.357 57.4842C197.878 57.1339 197.327 56.9273 196.704 56.863C196.08 56.8 195.473 56.9345 194.881 57.2691C194.29 57.6036 193.882 58.2176 193.659 59.1078C193.403 61.9745 193.147 64.9526 192.892 68.0411C192.636 71.1307 192.364 74.2519 192.077 77.4052C191.789 80.5578 191.501 83.6869 191.214 86.7917C190.926 89.8971 190.638 92.8825 190.351 95.7485C190.447 96.6085 190.686 97.2776 191.07 97.7552C191.453 98.2333 191.901 98.52 192.412 98.6152C192.923 98.7109 193.459 98.6224 194.018 98.3521C194.577 98.0824 195.065 97.6115 195.481 96.9431C196.759 97.6437 198.198 98.0976 199.796 98.3049C201.394 98.5115 203.015 98.5115 204.663 98.3049C206.308 98.0976 207.93 97.7079 209.528 97.134C211.126 96.5612 212.581 95.8443 213.891 94.9849C215.202 94.1249 216.304 93.1449 217.2 92.0468C218.094 90.9474 218.686 89.7613 218.973 88.488C219.261 87.182 219.341 85.8766 219.213 84.5705C219.085 83.2651 218.765 82.0554 218.254 80.9397Z" fill="#0D0C23"/>
<path fill-rule="evenodd" clip-rule="evenodd" d="M265.029 106.162C264.854 107.213 264.605 108.32 264.286 109.483C263.966 110.644 263.591 111.704 263.16 112.66C262.728 113.615 262.249 114.386 261.722 114.976C261.194 115.565 260.626 115.812 260.019 115.717C259.54 115.652 259.236 115.35 259.109 114.809C258.98 114.267 258.98 113.598 259.109 112.803C259.236 112.006 259.483 111.106 259.851 110.103C260.219 109.1 260.667 108.104 261.194 107.118C261.722 106.13 262.321 105.183 262.992 104.275C263.663 103.368 264.366 102.611 265.101 102.006C265.261 102.197 265.333 102.675 265.317 103.44C265.3 104.204 265.205 105.112 265.029 106.162ZM281.283 85.4296C280.851 84.952 280.324 84.6817 279.7 84.6175C279.077 84.5538 278.445 84.9041 277.807 85.6684C277.391 86.4326 276.863 87.1653 276.224 87.8659C275.585 88.5671 274.922 89.2035 274.235 89.7768C273.547 90.3495 272.892 90.844 272.269 91.2574C271.646 91.6719 271.158 91.9743 270.807 92.1652C270.679 91.1465 270.606 90.0477 270.591 88.8689C270.574 87.6907 270.599 86.4968 270.663 85.2865C270.758 83.5666 270.958 81.8314 271.262 80.0793C271.566 78.3279 272.005 76.6079 272.581 74.9194C272.581 74.0285 272.372 73.3037 271.957 72.7461C271.541 72.1892 271.038 71.8383 270.447 71.6952C269.855 71.5522 269.249 71.6316 268.625 71.934C268.002 72.237 267.467 72.7867 267.019 73.5819C266.636 74.6334 266.196 75.8115 265.701 77.117C265.205 78.423 264.646 79.7527 264.023 81.106C263.399 82.4605 262.704 83.7738 261.937 85.0472C261.17 86.3217 260.331 87.4526 259.42 88.4392C258.509 89.4265 257.518 90.1992 256.448 90.7562C255.376 91.3137 254.219 91.5604 252.972 91.4968C252.396 91.3374 251.98 90.9077 251.725 90.2065C251.469 89.5065 251.317 88.6301 251.27 87.5792C251.222 86.5283 251.27 85.3738 251.413 84.1156C251.557 82.8581 251.749 81.6078 251.989 80.366C252.228 79.1236 252.492 77.9454 252.779 76.8309C253.067 75.7164 253.338 74.7764 253.594 74.0122C253.978 73.0891 253.978 72.3158 253.594 71.6952C253.211 71.074 252.684 70.6607 252.013 70.4528C251.342 70.2462 250.638 70.2546 249.903 70.4771C249.168 70.7001 248.64 71.1934 248.321 71.9576C247.777 73.2643 247.281 74.7285 246.834 76.3527C246.387 77.977 246.027 79.6575 245.756 81.3927C245.484 83.129 245.331 84.849 245.3 86.5526C245.298 86.6635 245.303 86.7689 245.303 86.8792C244.606 88.7307 243.942 90.1301 243.311 91.0665C242.496 92.2773 241.576 92.8028 240.554 92.6428C240.105 92.4519 239.811 92.0064 239.667 91.3052C239.522 90.6052 239.475 89.7453 239.522 88.7253C239.571 87.7071 239.691 86.5526 239.882 85.2623C240.075 83.9726 240.313 82.6351 240.601 81.2496C240.889 79.8636 241.193 78.4715 241.512 77.0697C241.832 75.6685 242.119 74.3467 242.376 73.1043C242.344 71.9898 242.016 71.1383 241.392 70.5486C240.77 69.9601 239.898 69.7292 238.78 69.8559C238.013 70.1746 237.445 70.5892 237.078 71.0983C236.71 71.6073 236.414 72.2607 236.191 73.0564C236.062 73.471 235.871 74.2988 235.615 75.5412C235.359 76.7824 235.032 78.2085 234.632 79.8163C234.233 81.4254 233.761 83.1048 233.218 84.8562C232.675 86.6077 232.067 88.1932 231.397 89.6095C230.725 91.0265 229.99 92.1652 229.191 93.0252C228.392 93.8846 227.529 94.2355 226.602 94.0761C226.09 93.9804 225.763 93.4549 225.619 92.4998C225.475 91.544 225.452 90.3665 225.547 88.9647C225.643 87.5635 225.835 86.0265 226.122 84.355C226.41 82.6829 226.705 81.0987 227.009 79.6012C227.313 78.1048 227.593 76.7824 227.849 75.6364C228.104 74.4897 228.28 73.7255 228.376 73.3437C228.376 72.4201 228.167 71.6801 227.753 71.1219C227.337 70.5655 226.834 70.2146 226.242 70.071C225.65 69.928 225.043 70.0074 224.421 70.3098C223.797 70.6128 223.262 71.1625 222.814 71.9576C222.654 72.8176 222.446 73.8134 222.191 74.9437C221.935 76.0739 221.688 77.2364 221.448 78.4309C221.208 79.6254 220.984 80.7957 220.777 81.9423C220.569 83.089 220.417 84.092 220.321 84.952C220.257 85.6205 220.185 86.4411 220.106 87.412C220.025 88.3841 219.985 89.4107 219.985 90.4931C219.985 91.5768 220.065 92.6513 220.226 93.7179C220.385 94.7852 220.673 95.7646 221.088 96.6555C221.503 97.5476 222.087 98.2797 222.839 98.853C223.589 99.4263 224.54 99.7445 225.691 99.8088C226.873 99.8718 227.904 99.7851 228.784 99.5457C229.662 99.3069 230.461 98.9324 231.181 98.4227C231.9 97.9142 232.555 97.3088 233.147 96.6076C233.737 95.9076 234.321 95.1434 234.896 94.3149C235.44 95.5258 236.143 96.4646 237.006 97.1336C237.869 97.8021 238.78 98.2009 239.739 98.3276C240.697 98.4542 241.673 98.3203 242.664 97.9215C243.654 97.5239 244.549 96.847 245.348 95.8912C245.875 95.3052 246.371 94.6391 246.837 93.9028C247.035 94.2476 247.245 94.5803 247.482 94.8876C248.265 95.9076 249.328 96.6076 250.671 96.99C252.109 97.3724 253.514 97.4367 254.889 97.1815C256.263 96.927 257.574 96.4646 258.82 95.7961C260.067 95.127 261.225 94.3234 262.297 93.3834C263.367 92.444 264.302 91.4652 265.101 90.4453C265.069 91.178 265.053 91.8713 265.053 92.5234C265.053 93.1767 265.037 93.8846 265.006 94.6494C263.407 95.7646 261.897 97.1021 260.475 98.6621C259.052 100.222 257.805 101.886 256.735 103.654C255.664 105.421 254.825 107.213 254.219 109.028C253.611 110.844 253.315 112.54 253.331 114.117C253.347 115.693 253.722 117.07 254.458 118.248C255.192 119.427 256.391 120.27 258.053 120.78C259.78 121.322 261.297 121.337 262.609 120.828C263.919 120.318 265.061 119.474 266.036 118.296C267.011 117.118 267.81 115.693 268.434 114.021C269.057 112.349 269.552 110.605 269.92 108.79C270.287 106.975 270.519 105.19 270.615 103.44C270.711 101.687 270.711 100.126 270.615 98.7573C273.364 97.6112 275.617 96.1621 277.375 94.41C279.133 92.6598 280.587 90.8119 281.738 88.8689C282.089 88.3913 282.209 87.818 282.098 87.1495C281.985 86.4805 281.714 85.9071 281.283 85.4296Z" fill="#0D0C23"/>
<path fill-rule="evenodd" clip-rule="evenodd" d="M341.764 82.3734C341.86 81.6413 342.004 80.8686 342.195 80.0565C342.387 79.2444 342.627 78.4559 342.915 77.6917C343.202 76.9275 343.538 76.2669 343.922 75.7093C344.305 75.1523 344.713 74.7542 345.144 74.5148C345.576 74.2766 346.014 74.3002 346.463 74.5863C346.942 74.8736 347.237 75.4784 347.35 76.4014C347.461 77.3262 347.35 78.3129 347.014 79.3638C346.678 80.4153 346.079 81.4019 345.216 82.3256C344.353 83.2498 343.186 83.854 341.716 84.1407C341.652 83.6959 341.668 83.1062 341.764 82.3734ZM358.376 84.3316C357.849 84.1734 357.346 84.1571 356.866 84.2843C356.387 84.4116 356.083 84.7461 355.956 85.288C355.699 86.3067 355.291 87.3497 354.732 88.4164C354.173 89.4837 353.486 90.4945 352.672 91.4503C351.857 92.4054 350.937 93.2497 349.915 93.9818C348.891 94.7145 347.821 95.2399 346.702 95.5581C345.583 95.909 344.656 95.9484 343.922 95.6775C343.186 95.4078 342.603 94.9454 342.172 94.2927C341.74 93.64 341.428 92.8515 341.237 91.9279C341.045 91.0042 340.933 90.0491 340.901 89.0612C342.723 89.1891 344.345 88.8631 345.768 88.0819C347.189 87.3025 348.396 86.2667 349.387 84.977C350.377 83.6874 351.129 82.2383 351.64 80.6298C352.151 79.022 352.439 77.4214 352.503 75.8287C352.535 74.3317 352.312 73.0663 351.832 72.0312C351.353 70.9966 350.705 70.1912 349.89 69.6185C349.076 69.0452 348.14 68.7106 347.086 68.6155C346.032 68.5197 344.96 68.6633 343.873 69.0452C342.562 69.4912 341.452 70.2154 340.541 71.2191C339.63 72.2221 338.871 73.3851 338.264 74.7063C337.657 76.0281 337.177 77.4529 336.826 78.9814C336.474 80.5104 336.218 82.0153 336.059 83.4965C335.915 84.8255 335.838 86.0964 335.811 87.3231C335.742 87.4788 335.676 87.6285 335.603 87.7952C335.107 88.9267 334.531 90.0333 333.877 91.1157C333.222 92.1988 332.494 93.1066 331.696 93.8387C330.897 94.5715 330.066 94.826 329.203 94.603C328.691 94.4763 328.412 93.886 328.364 92.8357C328.316 91.7842 328.371 90.4788 328.531 88.9182C328.691 87.3582 328.875 85.6692 329.083 83.854C329.29 82.0389 329.394 80.3038 329.394 78.6474C329.394 77.2141 329.122 75.8372 328.579 74.5148C328.035 73.1942 327.292 72.0948 326.35 71.2191C325.407 70.3427 324.312 69.7615 323.066 69.4755C321.819 69.1882 320.477 69.3797 319.039 70.0482C317.6 70.7173 316.457 71.6566 315.611 72.8669C314.763 74.0778 313.988 75.3511 313.285 76.6887C313.029 75.6693 312.654 74.7227 312.158 73.8463C311.663 72.9706 311.056 72.2063 310.337 71.553C309.617 70.9009 308.809 70.3912 307.916 70.0245C307.021 69.6591 306.077 69.4755 305.086 69.4755C304.128 69.4755 303.241 69.6591 302.426 70.0245C301.611 70.3912 300.868 70.8603 300.196 71.4336C299.525 72.0075 298.918 72.6518 298.374 73.3687C297.831 74.0851 297.351 74.7942 296.936 75.4942C296.871 74.6663 296.8 73.9421 296.721 73.3202C296.64 72.6997 296.496 72.1742 296.289 71.7445C296.081 71.3142 295.786 70.9882 295.402 70.7651C295.018 70.5427 294.475 70.4306 293.772 70.4306C293.42 70.4306 293.068 70.5021 292.717 70.6451C292.365 70.7888 292.053 70.9882 291.782 71.2427C291.51 71.4985 291.303 71.8081 291.159 72.1742C291.015 72.5403 290.976 72.9627 291.039 73.4402C291.071 73.7911 291.159 74.2124 291.303 74.7063C291.446 75.2002 291.582 75.8457 291.71 76.6408C291.838 77.4372 291.942 78.4008 292.022 79.5311C292.102 80.662 292.125 82.0474 292.094 83.6874C292.061 85.328 291.942 87.2461 291.734 89.4436C291.526 91.6412 291.198 94.189 290.751 97.0866C290.687 97.7556 290.943 98.2975 291.519 98.7114C292.094 99.1247 292.749 99.3635 293.484 99.4277C294.219 99.4914 294.915 99.3635 295.57 99.0459C296.225 98.7265 296.601 98.1696 296.696 97.3738C296.792 95.8769 296.976 94.2848 297.248 92.5963C297.519 90.9091 297.855 89.237 298.255 87.5806C298.654 85.9249 299.109 84.3486 299.621 82.851C300.132 81.3541 300.7 80.0329 301.323 78.8862C301.947 77.7396 302.594 76.8244 303.265 76.1396C303.936 75.4548 304.639 75.1123 305.375 75.1123C306.269 75.1123 306.964 75.5178 307.46 76.3299C307.955 77.1426 308.306 78.1862 308.515 79.4589C308.722 80.7335 308.818 82.1274 308.803 83.6395C308.786 85.1522 308.722 86.6091 308.611 88.0103C308.499 89.4121 308.371 90.6618 308.227 91.7606C308.083 92.8594 307.979 93.6163 307.916 94.0296C307.916 94.7624 308.195 95.343 308.754 95.7733C309.313 96.2029 309.936 96.4581 310.624 96.5375C311.312 96.6175 311.958 96.4896 312.566 96.1551C313.173 95.8205 313.525 95.2563 313.621 94.4593C313.94 92.1666 314.38 89.8661 314.939 87.557C315.498 85.248 316.138 83.1783 316.857 81.3468C317.576 79.5153 318.375 78.0184 319.254 76.856C320.133 75.6942 321.068 75.1123 322.059 75.1123C322.57 75.1123 322.962 75.4632 323.233 76.1632C323.505 76.8638 323.641 77.819 323.641 79.0293C323.641 79.9214 323.569 80.8371 323.426 81.7765C323.281 82.7159 323.114 83.6874 322.922 84.6904C322.73 85.694 322.562 86.7207 322.418 87.7716C322.275 88.8231 322.203 89.9212 322.203 91.0679C322.203 91.8642 322.283 92.7878 322.443 93.8387C322.602 94.889 322.905 95.8854 323.353 96.8241C323.801 97.7641 324.416 98.5599 325.2 99.2126C325.983 99.8653 326.981 100.192 328.195 100.192C330.018 100.192 331.631 99.8017 333.038 99.0217C334.444 98.2417 335.651 97.2229 336.658 95.9648C336.71 95.8987 336.758 95.8284 336.809 95.763C336.886 95.949 336.954 96.146 337.041 96.3229C337.728 97.7241 338.663 98.8065 339.846 99.5714C341.028 100.336 342.419 100.757 344.018 100.837C345.615 100.916 347.357 100.622 349.244 99.9532C350.649 99.4435 351.872 98.8065 352.911 98.0423C353.949 97.2781 354.884 96.3466 355.715 95.2478C356.547 94.149 357.305 92.883 357.993 91.4503C358.681 90.0164 359.375 88.377 360.078 86.5291C360.206 86.0207 360.086 85.5667 359.719 85.168C359.351 84.7704 358.904 84.4916 358.376 84.3316Z" fill="#0D0C23"/>
<path fill-rule="evenodd" clip-rule="evenodd" d="M384.433 79.0031C384.273 79.9431 384.058 80.9788 383.786 82.1085C383.514 83.2394 383.171 84.4097 382.755 85.62C382.34 86.8302 381.828 87.9211 381.221 88.892C380.614 89.8641 379.918 90.6356 379.136 91.209C378.352 91.7823 377.45 92.0211 376.427 91.9253C375.915 91.8623 375.523 91.512 375.252 90.8744C374.98 90.2381 374.837 89.4254 374.82 88.4381C374.804 87.4514 374.892 86.3684 375.084 85.1897C375.276 84.0121 375.571 82.857 375.972 81.7261C376.371 80.5964 376.858 79.5528 377.433 78.597C378.009 77.6419 378.672 76.9013 379.423 76.3759C380.174 75.8504 380.998 75.6044 381.892 75.6353C382.787 75.6674 383.746 76.1128 384.769 76.9728C384.704 77.3874 384.593 78.0643 384.433 79.0031ZM401.477 82.6576C400.981 82.403 400.47 82.3479 399.943 82.4909C399.416 82.6339 399.04 83.12 398.817 83.9479C398.689 84.84 398.401 85.8903 397.954 87.1005C397.506 88.3108 396.954 89.4581 396.3 90.5399C395.644 91.6229 394.893 92.5229 394.046 93.2392C393.199 93.9562 392.296 94.2829 391.338 94.218C390.538 94.155 389.978 93.7489 389.66 93.0005C389.339 92.252 389.172 91.3132 389.156 90.1817C389.139 89.052 389.252 87.7781 389.491 86.3606C389.731 84.9436 390.019 83.5345 390.354 82.1321C390.69 80.7315 391.034 79.3855 391.386 78.0958C391.737 76.8062 392.024 75.7153 392.249 74.8238C392.504 74.0274 392.424 73.3511 392.009 72.7929C391.593 72.2365 391.074 71.8377 390.451 71.599C389.827 71.3602 389.195 71.2965 388.556 71.408C387.917 71.5196 387.502 71.862 387.31 72.4347C385.424 70.8105 383.61 69.9347 381.869 69.8075C380.126 69.6802 378.52 70.0626 377.05 70.9541C375.579 71.8456 374.277 73.1353 373.143 74.8238C372.008 76.5122 371.089 78.351 370.385 80.3413C369.682 82.3315 369.243 84.3624 369.067 86.4321C368.891 88.5023 369.027 90.3896 369.475 92.0932C369.923 93.7968 370.713 95.1907 371.848 96.2725C372.982 97.3555 374.525 97.8974 376.475 97.8974C377.338 97.8974 378.169 97.7222 378.968 97.3719C379.766 97.021 380.502 96.6071 381.173 96.1295C381.844 95.6519 382.435 95.1501 382.948 94.6247C383.458 94.0992 383.858 93.6617 384.146 93.3108C384.369 94.4574 384.737 95.4295 385.249 96.2253C385.759 97.021 386.343 97.6749 386.998 98.1834C387.653 98.6925 388.341 99.067 389.06 99.3064C389.779 99.5452 390.475 99.6646 391.145 99.6646C392.648 99.6646 394.053 99.1549 395.365 98.1355C396.675 97.1174 397.85 95.8665 398.889 94.3859C399.927 92.9047 400.783 91.3447 401.453 89.7041C402.125 88.0642 402.572 86.6072 402.796 85.3327C403.02 84.8551 402.979 84.3539 402.676 83.8285C402.372 83.303 401.973 82.9133 401.477 82.6576Z" fill="#0D0C23"/>
<path fill-rule="evenodd" clip-rule="evenodd" d="M487.778 109.031C487.507 110.113 487.083 111.03 486.507 111.778C485.932 112.526 485.213 112.916 484.35 112.949C483.807 112.98 483.391 112.693 483.103 112.089C482.816 111.483 482.616 110.703 482.504 109.748C482.392 108.792 482.344 107.725 482.36 106.547C482.376 105.369 482.424 104.206 482.504 103.06C482.583 101.914 482.68 100.846 482.792 99.859C482.903 98.8711 482.991 98.1081 483.055 97.5663C484.142 97.6935 485.046 98.1626 485.764 98.9753C486.483 99.7874 487.035 100.751 487.418 101.866C487.802 102.98 488.025 104.183 488.09 105.472C488.153 106.762 488.049 107.948 487.778 109.031ZM470.422 109.031C470.151 110.113 469.727 111.03 469.152 111.778C468.577 112.526 467.857 112.916 466.994 112.949C466.451 112.98 466.036 112.693 465.748 112.089C465.46 111.483 465.26 110.703 465.149 109.748C465.036 108.792 464.988 107.725 465.005 106.547C465.02 105.369 465.068 104.206 465.149 103.06C465.228 101.914 465.324 100.846 465.436 99.859C465.548 98.8711 465.635 98.1081 465.7 97.5663C466.786 97.6935 467.69 98.1626 468.408 98.9753C469.128 99.7874 469.679 100.751 470.063 101.866C470.447 102.98 470.67 104.183 470.734 105.472C470.797 106.762 470.693 107.948 470.422 109.031ZM452.612 81.8974C452.579 82.661 452.507 83.338 452.395 83.9271C452.283 84.5174 452.132 84.8907 451.94 85.0501C451.588 84.8586 451.156 84.3659 450.645 83.5689C450.134 82.7732 449.735 81.8726 449.446 80.8695C449.159 79.8665 449.07 78.8799 449.183 77.9078C449.294 76.9369 449.798 76.1811 450.693 75.6387C451.044 75.4478 451.348 75.5193 451.604 75.8539C451.86 76.1884 452.067 76.6738 452.228 77.3108C452.387 77.9484 452.498 78.6805 452.563 79.5084C452.627 80.3368 452.643 81.1326 452.612 81.8974ZM448.368 91.4276C447.872 91.9524 447.32 92.4063 446.714 92.7888C446.106 93.1712 445.483 93.4578 444.844 93.6488C444.204 93.8403 443.629 93.8875 443.118 93.7918C441.68 93.5057 440.577 92.8839 439.81 91.9288C439.043 90.9736 438.555 89.8512 438.348 88.5616C438.14 87.2713 438.163 85.8937 438.42 84.4289C438.675 82.9641 439.106 81.6029 439.714 80.3447C440.321 79.0865 441.057 78.0035 441.919 77.0963C442.782 76.1884 443.725 75.6236 444.748 75.3999C444.364 77.0241 444.237 78.7047 444.364 80.4399C444.492 82.1756 444.908 83.8077 445.611 85.3361C446.058 86.261 446.594 87.104 447.217 87.8682C447.841 88.6331 448.6 89.2858 449.495 89.827C449.239 90.3688 448.863 90.9021 448.368 91.4276ZM501.418 82.375C501.514 81.6429 501.657 80.8695 501.85 80.0574C502.041 79.2459 502.281 78.4575 502.568 77.6932C502.856 76.9284 503.192 76.2678 503.576 75.7108C503.96 75.1539 504.366 74.7551 504.798 74.5163C505.23 74.2775 505.669 74.3012 506.116 74.5878C506.596 74.8751 506.891 75.4799 507.003 76.4029C507.115 77.3272 507.003 78.3138 506.668 79.3653C506.332 80.4162 505.733 81.4035 504.87 82.3265C504.008 83.2513 502.84 83.8556 501.37 84.1422C501.306 83.6968 501.322 83.1077 501.418 82.375ZM520.74 82.375C520.836 81.6429 520.979 80.8695 521.171 80.0574C521.363 79.2459 521.603 78.4575 521.891 77.6932C522.178 76.9284 522.513 76.2678 522.897 75.7108C523.281 75.1539 523.689 74.7551 524.12 74.5163C524.552 74.2775 524.991 74.3012 525.438 74.5878C525.918 74.8751 526.213 75.4799 526.325 76.4029C526.437 77.3272 526.325 78.3138 525.99 79.3653C525.654 80.4162 525.055 81.4035 524.192 82.3265C523.329 83.2513 522.162 83.8556 520.692 84.1422C520.628 83.6968 520.644 83.1077 520.74 82.375ZM538.695 85.1695C538.327 84.7719 537.88 84.4931 537.353 84.3331C536.825 84.1743 536.322 84.1586 535.842 84.2859C535.363 84.4131 535.058 84.7477 534.931 85.2889C534.675 86.3083 534.268 87.3513 533.709 88.4173C533.149 89.4852 532.462 90.4961 531.647 91.4512C530.832 92.4063 529.913 93.2512 528.891 93.9833C527.867 94.716 526.797 95.2415 525.679 95.559C524.559 95.9105 523.632 95.9499 522.897 95.679C522.162 95.4087 521.579 94.9469 521.147 94.2942C520.716 93.6409 520.405 92.853 520.212 91.9288C520.021 91.0058 519.908 90.0506 519.877 89.0628C521.699 89.1906 523.321 88.8646 524.743 88.0834C526.165 87.3034 527.372 86.2676 528.364 84.978C529.354 83.6889 530.105 82.2398 530.616 80.6314C531.127 79.0229 531.415 77.4229 531.48 75.8302C531.511 74.3333 531.287 73.0672 530.808 72.0321C530.329 70.9976 529.682 70.1927 528.867 69.62C528.051 69.0461 527.117 68.7121 526.061 68.6164C525.007 68.5206 523.936 68.6649 522.849 69.0461C521.538 69.4927 520.428 70.217 519.518 71.22C518.607 72.2236 517.847 73.3866 517.24 74.7072C516.632 76.0296 516.153 77.4538 515.801 78.9829C515.449 80.5114 515.194 82.0168 515.035 83.4974C514.879 84.9343 514.795 86.3095 514.776 87.6258C514.655 87.8882 514.526 88.1519 514.387 88.4173C513.827 89.4852 513.14 90.4961 512.325 91.4512C511.511 92.4063 510.591 93.2512 509.569 93.9833C508.546 94.716 507.475 95.2415 506.357 95.559C505.237 95.9105 504.311 95.9499 503.576 95.679C502.84 95.4087 502.257 94.9469 501.826 94.2942C501.395 93.6409 501.083 92.853 500.891 91.9288C500.699 91.0058 500.587 90.0506 500.555 89.0628C502.377 89.1906 503.999 88.8646 505.422 88.0834C506.843 87.3034 508.05 86.2676 509.041 84.978C510.032 83.6889 510.783 82.2398 511.294 80.6314C511.805 79.0229 512.094 77.4229 512.157 75.8302C512.189 74.3333 511.966 73.0672 511.487 72.0321C511.007 70.9976 510.359 70.1927 509.544 69.62C508.729 69.0461 507.795 68.7121 506.74 68.6164C505.685 68.5206 504.614 68.6649 503.528 69.0461C502.216 69.4927 501.106 70.217 500.196 71.22C499.285 72.2236 498.525 73.3866 497.918 74.7072C497.311 76.0296 496.832 77.4538 496.48 78.9829C496.128 80.5114 495.872 82.0168 495.713 83.4974C495.622 84.3325 495.562 85.1422 495.517 85.9373C495.208 86.1992 494.907 86.4628 494.586 86.7216C493.484 87.6137 492.324 88.4173 491.11 89.1343C489.895 89.8512 488.632 90.4403 487.323 90.9021C486.011 91.3639 484.669 91.6427 483.295 91.7379L486.268 60.0177C486.46 59.3486 486.364 58.7602 485.98 58.2505C485.597 57.7408 485.101 57.3905 484.494 57.1996C483.887 57.0081 483.239 57.0244 482.552 57.2469C481.864 57.4705 481.298 57.9802 480.85 58.7753C480.626 59.9862 480.394 61.6419 480.155 63.7437C479.915 65.8455 479.675 68.1388 479.436 70.623C479.196 73.1072 478.956 75.6708 478.717 78.3138C478.477 80.958 478.269 83.4259 478.093 85.7186C478.085 85.8204 478.079 85.9125 478.071 86.0131C477.791 86.2495 477.52 86.4876 477.23 86.7216C476.128 87.6137 474.968 88.4173 473.754 89.1343C472.539 89.8512 471.277 90.4403 469.967 90.9021C468.656 91.3639 467.313 91.6427 465.939 91.7379L468.912 60.0177C469.104 59.3486 469.008 58.7602 468.625 58.2505C468.241 57.7408 467.745 57.3905 467.138 57.1996C466.531 57.0081 465.883 57.0244 465.196 57.2469C464.509 57.4705 463.942 57.9802 463.494 58.7753C463.27 59.9862 463.039 61.6419 462.8 63.7437C462.559 65.8455 462.32 68.1388 462.08 70.623C461.84 73.1072 461.601 75.6708 461.361 78.3138C461.122 80.958 460.913 83.4259 460.738 85.7186C460.734 85.7646 460.731 85.8064 460.727 85.8525C460.225 86.0846 459.678 86.2883 459.083 86.4592C458.476 86.6349 457.789 86.7385 457.022 86.7701C457.15 86.1961 457.253 85.5592 457.333 84.8586C457.413 84.1586 457.478 83.4259 457.526 82.661C457.574 81.8974 457.589 81.1326 457.574 80.3683C457.557 79.6035 457.517 78.9035 457.454 78.2659C457.293 76.8975 456.998 75.5993 456.567 74.3727C456.135 73.1472 455.552 72.1206 454.817 71.2915C454.081 70.4636 453.163 69.9061 452.059 69.62C450.957 69.3333 449.67 69.4285 448.201 69.9061C446.026 69.62 444.069 69.8194 442.327 70.5036C440.585 71.1891 439.074 72.1836 437.796 73.489C436.518 74.7957 435.471 76.3314 434.656 78.0993C433.841 79.8665 433.297 81.6823 433.026 83.5447C432.911 84.3343 432.855 85.1204 432.838 85.9046C432.343 86.9143 431.801 87.7967 431.204 88.5373C430.357 89.5882 429.478 90.4482 428.567 91.1167C427.656 91.7857 426.753 92.2954 425.859 92.6457C424.963 92.9966 424.164 93.2354 423.461 93.3621C422.63 93.5215 421.831 93.5378 421.064 93.41C420.297 93.2833 419.593 92.9166 418.955 92.3112C418.443 91.8657 418.051 91.1488 417.78 90.1615C417.508 89.1743 417.349 88.0525 417.301 86.7937C417.253 85.5355 417.301 84.2216 417.444 82.8525C417.588 81.4835 417.835 80.1853 418.187 78.9593C418.539 77.7332 418.985 76.6345 419.53 75.6623C420.072 74.6921 420.712 73.9987 421.448 73.5848C421.862 73.649 422.119 73.8951 422.215 74.3248C422.311 74.7551 422.334 75.2648 422.286 75.8539C422.239 76.4435 422.167 77.0484 422.071 77.669C421.975 78.2902 421.927 78.8084 421.927 79.2217C422.087 80.0817 422.398 80.7508 422.862 81.2283C423.325 81.7059 423.845 81.9853 424.42 82.0641C424.995 82.1441 425.562 82.0089 426.123 81.658C426.681 81.3083 427.136 80.7508 427.489 79.9859C427.52 80.018 427.568 80.0338 427.632 80.0338L428.304 73.9672C428.495 73.1387 428.367 72.4066 427.92 71.7697C427.472 71.1327 426.881 70.7661 426.146 70.6709C425.219 69.3333 423.964 68.6249 422.382 68.5449C420.8 68.4655 419.178 68.983 417.516 70.0976C416.493 70.8309 415.59 71.8412 414.807 73.1309C414.023 74.4212 413.385 75.8539 412.89 77.4302C412.393 79.0065 412.042 80.6714 411.835 82.4229C411.627 84.1743 411.587 85.8786 411.714 87.5337C411.842 89.1906 412.138 90.7512 412.602 92.2154C413.065 93.6809 413.712 94.9069 414.544 95.8936C415.247 96.7536 416.045 97.3832 416.94 97.7814C417.835 98.1796 418.77 98.4257 419.745 98.5214C420.72 98.6166 421.687 98.5766 422.646 98.402C423.605 98.2275 424.516 97.9808 425.379 97.6614C426.497 97.2481 427.649 96.722 428.831 96.0851C430.013 95.4487 431.148 94.6839 432.235 93.7918C432.807 93.3227 433.357 92.8112 433.889 92.2627C434.131 92.8615 434.402 93.4409 434.728 93.9833C435.591 95.416 436.757 96.579 438.228 97.4705C439.697 98.362 441.504 98.7911 443.645 98.7602C445.947 98.7281 448.072 98.1475 450.022 97.0166C451.972 95.8869 453.57 94.2215 454.817 92.0245C456.684 92.0245 458.521 91.7179 460.327 91.1088C460.312 91.3015 460.296 91.5045 460.282 91.6906C460.155 93.3785 460.09 94.5245 460.09 95.1299C460.059 96.1808 459.987 97.4784 459.875 99.0226C459.763 100.567 459.691 102.192 459.659 103.895C459.628 105.599 459.691 107.319 459.851 109.055C460.011 110.79 460.346 112.367 460.858 113.785C461.368 115.201 462.095 116.404 463.039 117.392C463.981 118.378 465.22 118.968 466.755 119.159C468.385 119.381 469.791 119.095 470.974 118.299C472.156 117.502 473.115 116.412 473.851 115.027C474.586 113.641 475.104 112.041 475.409 110.226C475.712 108.41 475.8 106.587 475.673 104.755C475.544 102.924 475.208 101.197 474.665 99.5729C474.122 97.9481 473.37 96.6105 472.412 95.559C472.988 95.4008 473.674 95.0984 474.474 94.6518C475.272 94.2063 476.095 93.7045 476.943 93.1469C477.151 93.01 477.356 92.8657 477.564 92.7251C477.486 93.8536 477.446 94.6584 477.446 95.1299C477.415 96.1808 477.343 97.4784 477.23 99.0226C477.119 100.567 477.047 102.192 477.015 103.895C476.983 105.599 477.047 107.319 477.207 109.055C477.366 110.79 477.702 112.367 478.213 113.785C478.724 115.201 479.452 116.404 480.394 117.392C481.337 118.378 482.576 118.968 484.111 119.159C485.74 119.381 487.146 119.095 488.329 118.299C489.512 117.502 490.471 116.412 491.206 115.027C491.941 113.641 492.46 112.041 492.764 110.226C493.068 108.41 493.155 106.587 493.028 104.755C492.9 102.924 492.564 101.197 492.022 99.5729C491.477 97.9481 490.727 96.6105 489.767 95.559C490.343 95.4008 491.03 95.0984 491.829 94.6518C492.628 94.2063 493.451 93.7045 494.299 93.1469C494.739 92.8573 495.176 92.5585 495.613 92.2512C495.777 93.8087 496.131 95.1748 496.695 96.3239C497.383 97.7257 498.317 98.8081 499.5 99.5729C500.682 100.337 502.073 100.759 503.672 100.838C505.27 100.917 507.011 100.623 508.898 99.9541C510.304 99.445 511.526 98.8081 512.565 98.0438C513.603 97.279 514.538 96.3475 515.37 95.2493C515.418 95.1857 515.463 95.1166 515.51 95.0524C515.658 95.4984 515.822 95.9269 516.017 96.3239C516.705 97.7257 517.64 98.8081 518.822 99.5729C520.004 100.337 521.395 100.759 522.993 100.838C524.591 100.917 526.333 100.623 528.219 99.9541C529.626 99.445 530.848 98.8081 531.887 98.0438C532.925 97.279 533.86 96.3475 534.692 95.2493C535.523 94.15 536.281 92.8839 536.969 91.4512C537.656 90.0179 538.351 88.3785 539.055 86.5307C539.182 86.0216 539.062 85.5677 538.695 85.1695Z" fill="#0D0C23"/>
</svg>
