<svg width="308" height="160" viewBox="0 0 308 160" fill="none" xmlns="http://www.w3.org/2000/svg">
<rect width="308" height="160" fill="#FFDD00"/>
<path d="M156.177 76.2337C152.66 77.7394 148.668 79.4466 143.495 79.4466C141.331 79.4423 139.177 79.1454 137.093 78.564L140.671 115.298C140.797 116.833 141.497 118.265 142.63 119.308C143.763 120.352 145.248 120.931 146.788 120.93C146.788 120.93 151.861 121.194 153.554 121.194C155.376 121.194 160.839 120.93 160.839 120.93C162.379 120.93 163.863 120.351 164.996 119.308C166.129 118.264 166.829 116.833 166.955 115.298L170.787 74.7056C169.075 74.1207 167.346 73.7321 165.398 73.7321C162.028 73.7308 159.313 74.8913 156.177 76.2337Z" fill="white"/>
<path d="M187.339 57.1718L186.801 54.4542C186.317 52.0158 185.22 49.7118 182.717 48.8305C181.915 48.5486 181.004 48.4274 180.389 47.8439C179.774 47.2603 179.592 46.354 179.45 45.5135C179.187 43.9709 178.939 42.427 178.669 40.8871C178.436 39.5632 178.251 38.0759 177.644 36.8614C176.854 35.2305 175.214 34.2768 173.583 33.6458C172.747 33.3338 171.894 33.0699 171.028 32.8554C166.954 31.7804 162.67 31.3852 158.478 31.16C153.447 30.8824 148.402 30.966 143.383 31.4103C139.647 31.7501 135.712 32.1612 132.162 33.4534C130.865 33.9264 129.528 34.4941 128.541 35.4966C127.33 36.7283 126.935 38.6332 127.819 40.1691C128.447 41.2599 129.512 42.0305 130.641 42.5403C132.111 43.1972 133.647 43.697 135.222 44.0315C139.609 45.0011 144.152 45.3818 148.634 45.5438C153.601 45.7443 158.576 45.5818 163.52 45.0577C164.742 44.9234 165.962 44.7622 167.181 44.5743C168.615 44.3543 169.536 42.4784 169.113 41.1716C168.607 39.6093 167.248 39.0033 165.71 39.2391C165.484 39.2747 165.259 39.3076 165.032 39.3406L164.869 39.3643C164.348 39.4301 163.827 39.4916 163.306 39.5487C162.23 39.6646 161.152 39.7595 160.071 39.8332C157.65 40.0018 155.222 40.0796 152.795 40.0835C150.411 40.0835 148.025 40.0163 145.646 39.8596C144.561 39.7884 143.478 39.698 142.398 39.5882C141.906 39.5368 141.416 39.4828 140.926 39.4222L140.46 39.3629L140.359 39.3485L139.875 39.2786C138.887 39.1298 137.899 38.9585 136.922 38.7517C136.823 38.7298 136.735 38.675 136.672 38.5962C136.608 38.5174 136.574 38.4193 136.574 38.3183C136.574 38.2173 136.608 38.1193 136.672 38.0405C136.735 37.9617 136.823 37.9068 136.922 37.8849H136.94C137.787 37.7044 138.641 37.5503 139.497 37.4159C139.782 37.3712 140.069 37.3272 140.356 37.2842H140.364C140.9 37.2486 141.439 37.1525 141.972 37.0892C146.614 36.6064 151.283 36.4418 155.948 36.5966C158.212 36.6624 160.475 36.7955 162.729 37.0247C163.214 37.0748 163.696 37.1275 164.178 37.1867C164.363 37.2091 164.549 37.2355 164.734 37.2579L165.108 37.3119C166.199 37.4743 167.284 37.6715 168.363 37.9034C169.963 38.2511 172.016 38.3644 172.728 40.1165C172.954 40.6724 173.057 41.2902 173.182 41.8738L173.342 42.618C173.346 42.6314 173.349 42.6451 173.351 42.6589C173.728 44.4153 174.105 46.1717 174.482 47.9282C174.51 48.0579 174.511 48.192 174.484 48.322C174.458 48.452 174.405 48.5752 174.329 48.6838C174.253 48.7925 174.155 48.8843 174.042 48.9535C173.929 49.0227 173.802 49.0678 173.671 49.0861H173.66L173.43 49.1177L173.202 49.148C172.48 49.242 171.757 49.3298 171.034 49.4115C169.608 49.5739 168.181 49.7145 166.751 49.833C163.91 50.0693 161.063 50.2243 158.211 50.298C156.757 50.3367 155.304 50.3547 153.852 50.352C148.07 50.3475 142.293 50.0115 136.55 49.3456C135.928 49.2718 135.307 49.1928 134.685 49.1124C135.167 49.1744 134.334 49.065 134.166 49.0413C133.771 48.986 133.375 48.9285 132.98 48.8687C131.654 48.6698 130.335 48.4248 129.011 48.2101C127.411 47.9466 125.88 48.0784 124.432 48.8687C123.244 49.519 122.282 50.5163 121.675 51.7273C121.051 53.0183 120.865 54.4239 120.586 55.811C120.306 57.1982 119.872 58.6907 120.036 60.1147C120.391 63.188 122.539 65.6857 125.63 66.2442C128.537 66.7711 131.46 67.198 134.391 67.5615C145.905 68.9717 157.537 69.1404 169.087 68.0648C170.027 67.9769 170.967 67.8812 171.904 67.7776C172.197 67.7454 172.494 67.7791 172.772 67.8764C173.05 67.9736 173.303 68.1318 173.512 68.3394C173.721 68.5471 173.882 68.7989 173.981 69.0764C174.08 69.3539 174.116 69.6501 174.086 69.9433L173.793 72.786C173.204 78.5304 172.615 84.2744 172.026 90.0179C171.411 96.0495 170.792 102.081 170.17 108.111C169.994 109.81 169.818 111.508 169.643 113.206C169.474 114.877 169.45 116.602 169.133 118.254C168.632 120.851 166.874 122.447 164.307 123.03C161.956 123.565 159.555 123.846 157.144 123.868C154.471 123.882 151.799 123.764 149.127 123.778C146.273 123.794 142.778 123.531 140.576 121.407C138.641 119.542 138.373 116.621 138.11 114.096C137.759 110.753 137.41 107.41 137.065 104.067L135.129 85.4811L133.876 73.4552C133.855 73.2563 133.834 73.06 133.814 72.8598C133.664 71.4253 132.648 70.021 131.048 70.0934C129.678 70.154 128.121 71.3185 128.281 72.8598L129.21 81.7754L131.131 100.218C131.678 105.457 132.224 110.696 132.768 115.936C132.874 116.94 132.972 117.947 133.083 118.95C133.685 124.436 137.874 127.392 143.062 128.224C146.092 128.712 149.195 128.812 152.27 128.862C156.211 128.925 160.192 129.077 164.069 128.363C169.814 127.309 174.124 123.473 174.739 117.522C174.915 115.805 175.091 114.086 175.266 112.368C175.85 106.684 176.433 101 177.016 95.3149L178.92 76.7406L179.794 68.2281C179.837 67.806 180.016 67.4091 180.302 67.0962C180.589 66.7833 180.969 66.5709 181.385 66.4906C183.028 66.1704 184.598 65.6238 185.767 64.3736C187.627 62.3831 187.997 59.788 187.339 57.1718ZM125.545 59.0082C125.57 58.9963 125.524 59.211 125.504 59.3112C125.5 59.1597 125.508 59.0253 125.545 59.0082ZM125.705 60.2412C125.718 60.232 125.757 60.2847 125.798 60.3479C125.736 60.2899 125.697 60.2465 125.703 60.2412H125.705ZM125.861 60.448C125.948 60.6048 125.918 60.5442 125.861 60.448ZM126.176 60.7036H126.184C126.184 60.7128 126.199 60.722 126.204 60.7312C126.195 60.7211 126.185 60.7118 126.175 60.7036H126.176ZM181.309 60.3215C180.719 60.8827 179.829 61.1436 178.951 61.274C169.097 62.7362 159.1 63.4765 149.138 63.1498C142.009 62.9061 134.955 62.1144 127.897 61.1172C127.205 61.0197 126.456 60.8933 125.98 60.3835C125.084 59.4218 125.524 57.4853 125.757 56.3235C125.971 55.2591 126.379 53.8403 127.645 53.6888C129.621 53.457 131.916 54.2908 133.871 54.5872C136.224 54.9464 138.587 55.234 140.958 55.4501C151.078 56.3722 161.367 56.2286 171.442 54.8797C173.278 54.6329 175.108 54.3462 176.931 54.0195C178.556 53.7283 180.356 53.1817 181.338 54.8639C182.011 56.0099 182.1 57.5433 181.996 58.8382C181.964 59.4024 181.718 59.9331 181.307 60.3215H181.309Z" fill="#0D0C22"/>
</svg>
